<?xml version="1.0" encoding="UTF-8"?>
<svg width="359px" height="83px" viewBox="0 0 359 83" version="1.1" xmlns="http://www.w3.org/2000/svg" xmlns:xlink="http://www.w3.org/1999/xlink">
    <!-- Generator: Sketch 46.2 (44496) - http://www.bohemiancoding.com/sketch -->
    <title>carersuklogo</title>
    <desc>Created with Sketch.</desc>
    <defs>
        <polygon id="path-1" points="0 82.94 0 0.898 358.32 0.898 358.32 82.94"></polygon>
    </defs>
    <g id="Page-1" stroke="none" stroke-width="1" fill="none" fill-rule="evenodd">
        <g id="carersuklogo">
            <g id="CarersUK_Logo_Lnd_2col_Pos">
                <path d="M269.416,18.592 C260.041,18.592 253.527,22.945 253.527,30.278 C253.527,43.949 273.464,39.9 273.464,46.393 C273.464,48.838 271.083,50.061 266.947,50.061 C263.357,50.061 258.482,48.949 255.126,47.28 L253.236,54.336 C257.193,55.838 263.187,57.01 267.669,57.01 C276.482,57.01 283.236,53.113 283.236,45.326 C283.236,31.882 263.298,35.243 263.298,29.285 C263.298,26.84 266.154,25.466 270.128,25.466 C273.58,25.466 276.828,26.156 279.416,27.08 L281.21,20.389 C277.023,19.218 271.917,18.592 269.416,18.592" id="Fill-1" fill="#343534"></path>
                <path d="M148.858,44.027 C148.858,46.011 148.304,47.617 147.27,48.685 C146.239,49.754 144.567,50.441 142.664,50.441 C139.009,50.441 136.627,48.303 136.627,44.256 C136.627,40.667 138.771,37.991 143.381,37.991 C145.366,37.991 147.667,38.45 148.858,38.91 L148.858,44.027 Z M161.252,50.061 C159.981,50.061 159.423,49.373 159.423,47.768 L159.423,31.956 C159.423,27.681 158.392,24.625 156.008,22.487 C153.068,19.815 148.62,18.592 142.585,18.592 C137.915,18.592 133.249,19.403 129.625,20.945 L131.271,27.085 C134.462,25.809 137.799,25.162 140.916,25.162 C144.014,25.162 146.159,25.848 147.349,27.147 C148.542,28.444 148.858,29.974 148.858,32.416 L148.858,33.409 C146.872,32.724 143.854,32.188 141.075,32.188 C132.021,32.188 125.981,36.465 125.981,44.715 C125.981,52.656 131.461,57.01 139.645,57.01 C143.935,57.01 147.985,55.482 150.051,52.887 C150.924,55.482 153.627,56.781 156.884,56.781 C159.71,56.781 162.308,55.957 163.901,54.904 L163.901,49.329 C163.158,49.707 162.025,50.061 161.252,50.061 L161.252,50.061 Z" id="Fill-2" fill="#343534"></path>
                <path d="M207.832,25.466 C212.363,25.466 215.14,28.752 215.14,34.556 C215.14,35.09 214.982,35.318 214.425,35.318 L200.367,35.318 C200.681,28.444 203.779,25.466 207.832,25.466 Z M221.642,47.356 C218.503,48.949 214.582,49.982 210.933,49.982 C205.05,49.982 201.238,47.081 200.525,41.122 L220.539,41.122 C224.117,41.122 225.308,39.597 225.308,35.624 C225.308,25.314 218.318,18.592 207.832,18.592 C197.029,18.592 189.642,25.772 189.642,37.991 C189.642,49.524 196.472,57.01 208.785,57.01 C213.949,57.01 219.507,55.711 223.164,53.191 L223.169,53.072 L221.642,47.356 L221.642,47.356 Z" id="Fill-3" fill="#343534"></path>
                <path d="M186.976,18.459 C177.291,18.459 175.179,24.472 175.179,24.472 C175.179,22.909 172.711,19.279 168.132,19.279 C165.149,19.279 164.906,19.279 164.572,19.279 L164.587,26.459 L166.191,26.459 C166.191,26.459 168.389,26.312 168.389,28.219 C168.389,30.13 168.389,56.322 168.389,56.322 L178.954,56.322 L178.954,35.93 C178.954,32.724 179.352,30.429 180.865,28.674 C182.13,27.222 184.035,26.611 186.339,26.611 C186.949,26.611 187.718,26.642 188.402,26.706 L190.539,18.713 C188.945,18.459 187.74,18.459 186.976,18.459" id="Fill-4" fill="#343534"></path>
                <path d="M249.671,18.459 C239.984,18.459 237.876,24.472 237.876,24.472 C237.876,22.909 235.41,19.279 230.824,19.279 C227.843,19.279 227.597,19.279 227.267,19.279 L227.257,26.459 L228.884,26.459 C228.884,26.459 231.082,26.312 231.082,28.219 C231.082,30.13 231.082,56.322 231.082,56.322 L241.648,56.322 L241.648,35.93 C241.648,32.724 242.044,30.429 243.558,28.674 C244.83,27.222 246.732,26.611 249.035,26.611 C249.644,26.611 250.414,26.642 251.097,26.706 L253.236,18.713 C251.642,18.459 250.435,18.459 249.671,18.459" id="Fill-5" fill="#343534"></path>
                <path d="M111.223,49.955 C104.051,49.955 100.679,45.805 100.533,37.528 C100.679,29.25 104.051,25.1 111.223,25.1 C114.589,25.1 118.319,26.062 121.494,27.569 L123.257,21.346 C119.793,19.253 114.374,17.784 109.033,17.784 C96.475,17.784 89.144,24.785 89.144,37.372 L89.144,37.683 C89.144,50.267 96.475,57.269 109.033,57.269 C114.269,57.269 119.57,55.857 123.04,53.83 L121.276,47.593 C118.149,49.037 114.51,49.955 111.223,49.955" id="Fill-6" fill="#343534"></path>
                <path d="M319.457,42.879 C319.457,47.121 319.464,50.289 317.494,52.797 C315.103,55.844 309.453,57.457 303.658,57.457 C298.398,57.457 293.726,56.142 291.277,53.453 C289.009,50.945 288.232,48.017 288.232,43.177 L288.232,18.577 L296.593,18.577 L296.593,42.82 C296.593,45.806 296.949,47.599 297.97,48.914 C298.986,50.226 301.447,51.004 303.837,51.004 C306.285,51.004 308.626,50.226 309.644,49.034 C310.898,47.479 311.136,45.328 311.136,42.879 L311.136,18.577 L319.457,18.577 L319.457,42.879" id="Fill-7" fill="#D82239"></path>
                <g id="Group-11">
                    <mask id="mask-2" fill="white">
                        <use xlink:href="#path-1"></use>
                    </mask>
                    <g id="Clip-9"></g>
                    <path d="M357.843,55.615 C356.828,56.273 354.619,56.871 352.765,56.871 C349.181,56.871 347.089,55.197 344.824,51.076 L338.566,41.492 C338.566,41.492 338.314,40.919 337.5,40.919 C336.902,40.919 333.64,40.919 333.64,40.919 L333.64,56.392 L325.335,56.392 L325.335,18.577 L333.64,18.577 L333.64,34.228 C333.64,34.228 336.529,34.228 337.679,34.228 C338.832,34.228 339.203,33.311 339.203,33.311 L347.806,18.577 L356.171,18.577 L345.365,37.036 L352.773,48.865 C353.607,50.357 354.437,51.076 355.873,51.076 C356.71,51.076 357.843,50.717 358.32,50.357 L357.843,55.615" id="Fill-8" fill="#D82239" mask="url(#mask-2)"></path>
                    <path d="M62.061,26.686 C61.32,27.527 60.466,28.262 59.631,29.007 C58.647,29.884 57.693,30.801 56.66,31.621 C52.786,28.191 49.258,23.358 49.96,17.912 C50.468,13.956 53.291,9.43 57.734,9.43 C63.087,9.43 65.488,15.688 64.977,20.199 C64.7,22.64 63.679,24.85 62.061,26.686 M44.068,71.695 C43.373,73.146 41.861,74.853 40.103,74.859 C38.343,74.853 36.831,73.146 36.137,71.695 C35.451,70.264 35.415,68.752 35.658,67.217 C35.97,65.232 36.641,63.357 37.618,61.607 C38.338,60.312 39.185,59.096 40.103,57.93 C41.02,59.096 41.867,60.312 42.587,61.607 C43.564,63.357 44.235,65.232 44.547,67.217 C44.79,68.752 44.753,70.264 44.068,71.695 M23.544,31.621 C22.511,30.801 21.557,29.884 20.573,29.007 C19.739,28.262 18.885,27.527 18.144,26.686 C16.526,24.85 15.505,22.64 15.228,20.199 C14.717,15.688 17.117,9.43 22.471,9.43 C26.914,9.43 29.737,13.956 30.245,17.912 C30.947,23.358 27.419,28.191 23.544,31.621 M80.165,60.648 C79.194,56.303 77.637,52.309 75.536,48.773 C72.752,44.083 68.963,40.072 64.271,36.848 L64.673,36.482 C67.379,34.03 69.936,31.714 71.653,28.446 C73.555,24.822 74.337,20.528 73.853,16.356 C72.907,8.205 67.002,1.894 59.494,1.008 C58.878,0.936 58.255,0.898 57.64,0.898 C51.942,0.898 46.569,4.091 43.617,9.23 C41.854,12.299 40.923,15.823 40.925,19.421 C40.926,23.448 42.268,27.647 44.806,31.564 C45.999,33.411 47.485,35.21 49.223,36.917 C46.465,39.104 43.748,41.45 41.142,43.894 C40.794,44.22 40.447,44.548 40.102,44.877 C39.757,44.548 39.411,44.22 39.063,43.893 C36.455,41.448 33.737,39.102 30.983,36.917 C32.72,35.211 34.205,33.411 35.399,31.565 C37.936,27.647 39.278,23.448 39.279,19.421 C39.281,15.823 38.351,12.299 36.587,9.23 C33.636,4.091 28.263,0.898 22.565,0.898 C21.95,0.898 21.326,0.936 20.71,1.008 C13.202,1.894 7.298,8.205 6.353,16.356 C5.869,20.529 6.649,24.822 8.552,28.446 C10.269,31.713 12.824,34.029 15.53,36.481 L15.934,36.848 C11.243,40.071 7.454,44.082 4.668,48.773 C2.569,52.307 1.012,56.301 0.041,60.648 L0,60.83 L8.326,66.898 L8.386,66.422 C9.172,60.195 11.759,51.523 19.62,45.563 C19.62,45.563 21.554,44.138 22.467,43.546 C22.835,43.307 23.204,43.068 23.566,42.824 C24.755,43.735 25.9,44.642 26.971,45.522 C29.299,47.441 31.584,49.475 33.766,51.568 C33.312,52.117 32.869,52.674 32.441,53.244 C29.689,56.904 26.436,62.633 26.56,69.141 C26.704,76.781 32.777,82.998 40.103,83 L40.106,83 C47.428,82.998 53.501,76.781 53.645,69.142 C53.769,62.635 50.516,56.904 47.765,53.244 C47.337,52.674 46.892,52.117 46.438,51.568 C48.619,49.476 50.904,47.442 53.233,45.522 C54.313,44.636 55.458,43.729 56.639,42.824 C57.001,43.067 57.369,43.306 57.737,43.545 C58.65,44.137 60.588,45.566 60.588,45.566 C68.444,51.521 71.032,60.195 71.82,66.422 L71.88,66.898 L80.205,60.83 L80.165,60.648" id="Fill-10" fill="#D82239" mask="url(#mask-2)"></path>
                </g>
            </g>
        </g>
    </g>
</svg>